<?xml version="1.0" encoding="iso-8859-1"?>
<!-- Generator: Adobe Illustrator 19.0.0, SVG Export Plug-In . SVG Version: 6.00 Build 0)  -->
<svg version="1.1" id="Layer_1" xmlns="http://www.w3.org/2000/svg" xmlns:xlink="http://www.w3.org/1999/xlink" x="0px" y="0px"
	 viewBox="0 0 512 512" style="enable-background:new 0 0 512 512;" xml:space="preserve">
<polygon style="fill:#60DC4D;" points="434.087,434.087 434.087,400.696 400.696,400.696 400.696,367.304 367.304,367.304 
	367.304,333.913 367.304,311.652 367.304,300.522 400.696,300.522 400.696,267.13 434.087,267.13 434.087,100.174 400.696,100.174 
	400.696,66.783 378.435,66.783 367.304,66.783 367.304,33.391 333.913,33.391 333.913,0 178.087,0 178.087,33.391 144.696,33.391 
	144.696,66.783 111.304,66.783 111.304,100.174 77.913,100.174 77.913,267.13 111.304,267.13 111.304,300.522 144.696,300.522 
	144.696,311.652 144.696,333.913 144.696,367.304 111.304,367.304 111.304,400.696 77.913,400.696 77.913,434.087 44.522,434.087 
	44.522,512 77.913,512 434.087,512 467.478,512 467.478,434.087 "/>
<g>
	<polygon style="fill:#FFFFFF;" points="144.696,333.913 144.696,367.304 111.304,367.304 111.304,400.696 77.913,400.696 
		77.913,434.087 44.522,434.087 44.522,512 111.304,512 111.304,434.087 144.696,434.087 144.696,400.696 178.087,400.696 
		178.087,367.304 178.087,333.913 	"/>
	<polygon style="fill:#FFFFFF;" points="77.913,233.739 77.913,267.13 111.304,267.13 111.304,300.522 144.696,300.522 
		144.696,267.13 144.696,233.739 111.304,233.739 	"/>
	<polygon style="fill:#FFFFFF;" points="400.696,100.174 400.696,66.783 367.304,66.783 367.304,33.391 333.913,33.391 333.913,0 
		178.087,0 178.087,33.391 144.696,33.391 144.696,66.783 111.304,66.783 111.304,100.174 77.913,100.174 77.913,200.348 
		111.304,200.348 144.696,200.348 144.696,100.174 178.087,100.174 178.087,66.783 333.913,66.783 333.913,100.174 367.304,100.174 
		367.304,133.565 400.696,133.565 434.087,133.565 434.087,100.174 	"/>
</g>
<rect x="77.913" y="100.174" width="33.391" height="166.957"/>
<rect x="400.696" y="100.174" width="33.391" height="166.957"/>
<rect x="178.087" width="155.826" height="33.391"/>
<rect x="111.304" y="66.783" width="33.391" height="33.391"/>
<rect x="144.696" y="33.391" width="33.391" height="33.391"/>
<rect x="333.913" y="33.391" width="33.391" height="33.391"/>
<rect x="367.304" y="66.783" width="33.391" height="33.391"/>
<rect x="111.304" y="267.13" width="33.391" height="33.391"/>
<rect x="367.304" y="267.13" width="33.391" height="33.391"/>
<polygon points="333.913,333.913 300.522,333.913 300.522,367.304 333.913,367.304 367.304,367.304 367.304,333.913 
	367.304,300.522 333.913,300.522 "/>
<rect x="77.913" y="400.696" width="33.391" height="33.391"/>
<rect x="400.696" y="400.696" width="33.391" height="33.391"/>
<polygon points="434.087,434.087 434.087,478.609 77.913,478.609 77.913,434.087 44.522,434.087 44.522,478.609 44.522,512 
	77.913,512 434.087,512 467.478,512 467.478,478.609 467.478,434.087 "/>
<rect x="111.304" y="367.304" width="33.391" height="33.391"/>
<rect x="367.304" y="367.304" width="33.391" height="33.391"/>
<polygon points="211.478,367.304 211.478,333.913 178.087,333.913 178.087,300.522 144.696,300.522 144.696,333.913 
	144.696,367.304 178.087,367.304 "/>
<g>
</g>
<g>
</g>
<g>
</g>
<g>
</g>
<g>
</g>
<g>
</g>
<g>
</g>
<g>
</g>
<g>
</g>
<g>
</g>
<g>
</g>
<g>
</g>
<g>
</g>
<g>
</g>
<g>
</g>
</svg>
