<?xml version="1.0" encoding="iso-8859-1"?>
<!-- Generator: Adobe Illustrator 19.0.0, SVG Export Plug-In . SVG Version: 6.00 Build 0)  -->
<svg version="1.1" id="Layer_1" xmlns="http://www.w3.org/2000/svg" xmlns:xlink="http://www.w3.org/1999/xlink" x="0px" y="0px"
	 viewBox="0 0 512 512" style="enable-background:new 0 0 512 512;" xml:space="preserve">
<polygon style="fill:#006DF3;" points="478.609,155.826 478.609,100.174 445.217,100.174 445.217,66.783 411.826,66.783 
	411.826,33.391 356.174,33.391 356.174,0 155.826,0 155.826,33.391 100.174,33.391 100.174,66.783 66.783,66.783 66.783,100.174 
	33.391,100.174 33.391,155.826 0.008,155.829 0.008,356.177 33.391,356.177 33.391,411.826 66.783,411.826 66.783,422.957 
	66.783,445.217 100.174,445.217 100.174,456.348 100.174,478.609 155.826,478.609 155.826,489.739 155.826,512 356.174,512 
	356.174,489.739 356.174,478.609 411.826,478.609 411.826,456.348 411.826,445.217 445.217,445.217 445.217,422.957 
	445.217,411.826 478.609,411.826 478.609,356.177 489.746,356.177 489.746,356.174 512,356.174 512,155.826 "/>
<polygon style="fill:#FFFFFF;" points="445.217,155.826 411.826,155.826 411.826,100.171 356.174,100.171 356.174,66.779 
	155.826,66.779 155.826,100.171 100.174,100.171 100.174,155.826 66.783,155.826 66.783,356.174 100.174,356.174 100.174,389.565 
	100.174,411.826 155.826,411.826 155.826,422.957 155.826,445.217 356.174,445.217 356.174,422.957 356.174,411.826 
	411.826,411.826 411.826,389.565 411.826,356.174 445.217,356.174 "/>
<rect x="100.174" y="33.391" width="55.652" height="33.391"/>
<rect x="66.783" y="66.783" width="33.391" height="33.391"/>
<rect x="33.391" y="100.174" width="33.391" height="55.652"/>
<rect x="33.391" y="356.174" width="33.391" height="55.652"/>
<rect x="66.783" y="411.826" width="33.391" height="33.391"/>
<rect x="100.174" y="445.217" width="55.652" height="33.391"/>
<rect x="155.826" width="200.348" height="33.391"/>
<rect x="155.826" y="478.609" width="200.348" height="33.391"/>
<rect y="155.826" width="33.391" height="200.348"/>
<rect x="356.174" y="33.391" width="55.652" height="33.391"/>
<rect x="411.826" y="66.783" width="33.391" height="33.391"/>
<rect x="445.217" y="100.174" width="33.391" height="55.652"/>
<rect x="445.217" y="356.174" width="33.391" height="55.652"/>
<rect x="411.826" y="411.826" width="33.391" height="33.391"/>
<rect x="356.174" y="445.217" width="55.652" height="33.391"/>
<rect x="478.609" y="155.826" width="33.391" height="200.348"/>
<polygon points="278.261,77.913 244.87,77.913 244.87,233.739 144.696,233.739 144.696,267.13 278.261,267.13 278.261,244.87 
	278.261,244.87 "/>
<g>
</g>
<g>
</g>
<g>
</g>
<g>
</g>
<g>
</g>
<g>
</g>
<g>
</g>
<g>
</g>
<g>
</g>
<g>
</g>
<g>
</g>
<g>
</g>
<g>
</g>
<g>
</g>
<g>
</g>
</svg>
