<?xml version="1.0" encoding="iso-8859-1"?>
<!-- Generator: Adobe Illustrator 19.0.0, SVG Export Plug-In . SVG Version: 6.00 Build 0)  -->
<svg version="1.1" id="Layer_1" xmlns="http://www.w3.org/2000/svg" xmlns:xlink="http://www.w3.org/1999/xlink" x="0px" y="0px"
	 viewBox="0 0 512 512" style="enable-background:new 0 0 512 512;" xml:space="preserve">
<polygon style="fill:#FFDE46;" points="478.609,166.957 478.609,100.174 445.217,100.174 445.217,66.783 411.826,66.783 
	411.826,33.391 345.043,33.391 345.043,0 166.957,0 166.957,33.391 100.174,33.391 100.174,66.783 66.783,66.783 66.783,100.174 
	33.391,100.174 33.391,166.957 0,166.957 0,345.043 33.391,345.043 33.391,411.826 66.783,411.826 66.783,445.217 100.174,445.217 
	100.174,478.609 166.957,478.609 166.957,512 345.043,512 345.043,478.609 411.826,478.609 411.826,445.217 445.217,445.217 
	445.217,411.826 478.609,411.826 478.609,345.043 512,345.043 512,166.957 "/>
<rect x="166.957" y="322.783" width="33.391" height="33.391"/>
<rect x="311.652" y="267.13" width="33.391" height="89.043"/>
<rect x="166.957" y="155.826" width="33.391" height="77.913"/>
<rect x="200.348" y="233.739" width="111.304" height="33.391"/>
<polygon points="267.13,122.435 267.13,77.913 233.739,77.913 233.739,122.435 200.348,122.435 200.348,155.826 311.652,155.826 
	311.652,122.435 "/>
<rect x="311.652" y="155.826" width="33.391" height="33.391"/>
<polygon points="200.348,356.174 200.348,389.565 233.739,389.565 233.739,434.087 267.13,434.087 267.13,389.565 311.652,389.565 
	311.652,356.174 "/>
<rect x="66.783" y="66.783" width="33.391" height="33.391"/>
<polygon points="411.826,33.391 345.043,33.391 345.043,0 166.957,0 166.957,33.391 100.174,33.391 100.174,66.783 166.957,66.783 
	166.957,33.391 345.043,33.391 345.043,66.783 411.826,66.783 411.826,100.174 445.217,100.174 445.217,66.783 411.826,66.783 "/>
<rect x="445.217" y="100.174" width="33.391" height="66.783"/>
<rect x="478.609" y="166.957" width="33.391" height="178.087"/>
<rect x="445.217" y="345.043" width="33.391" height="66.783"/>
<polygon points="33.391,166.957 0,166.957 0,345.043 33.391,345.043 33.391,411.826 66.783,411.826 66.783,445.217 100.174,445.217 
	100.174,411.826 66.783,411.826 66.783,345.043 33.391,345.043 33.391,166.957 66.783,166.957 66.783,100.174 33.391,100.174 "/>
<polygon points="166.957,478.609 166.957,512 345.043,512 345.043,478.609 411.826,478.609 411.826,445.217 345.043,445.217 
	345.043,478.609 166.957,478.609 166.957,445.217 100.174,445.217 100.174,478.609 "/>
<rect x="411.826" y="411.826" width="33.391" height="33.391"/>
<g>
</g>
<g>
</g>
<g>
</g>
<g>
</g>
<g>
</g>
<g>
</g>
<g>
</g>
<g>
</g>
<g>
</g>
<g>
</g>
<g>
</g>
<g>
</g>
<g>
</g>
<g>
</g>
<g>
</g>
</svg>
