<?xml version="1.0" encoding="iso-8859-1"?>
<!-- Generator: Adobe Illustrator 19.0.0, SVG Export Plug-In . SVG Version: 6.00 Build 0)  -->
<svg version="1.1" id="Layer_1" xmlns="http://www.w3.org/2000/svg" xmlns:xlink="http://www.w3.org/1999/xlink" x="0px" y="0px"
	 viewBox="0 0 512 512" style="enable-background:new 0 0 512 512;" xml:space="preserve">
<polygon style="fill:#FFFFFF;" points="367.304,66.783 367.304,33.391 333.913,33.391 333.913,0 144.696,0 144.696,33.391 
	111.304,33.391 111.304,66.783 77.913,66.783 77.913,100.174 44.522,100.174 44.522,278.261 77.913,278.261 77.913,345.043 
	111.304,345.043 111.304,378.435 144.696,378.435 144.696,445.217 111.304,445.217 111.304,478.609 77.913,478.609 77.913,512 
	400.696,512 400.696,478.609 367.304,478.609 367.304,445.217 333.913,445.217 333.913,378.435 367.304,378.435 367.304,345.043 
	400.696,345.043 400.696,278.261 434.087,278.261 434.087,133.565 467.478,133.565 467.478,66.783 "/>
<polygon style="fill:#2488FF;" points="367.304,66.783 367.304,33.391 333.913,33.391 333.913,0 144.696,0 144.696,33.391 
	111.304,33.391 111.304,66.783 77.913,66.783 77.913,100.174 44.522,100.174 44.522,200.348 111.304,200.348 111.304,166.957 
	144.696,166.957 144.696,133.565 178.087,133.565 178.087,166.957 244.87,166.957 244.87,200.348 434.087,200.348 434.087,133.565 
	467.478,133.565 467.478,66.783 "/>
<polygon style="fill:#004FAC;" points="367.304,66.783 367.304,33.391 333.913,33.391 333.913,0 256,0 256,200.348 434.087,200.348 
	434.087,133.565 467.478,133.565 467.478,66.783 "/>
<polygon style="fill:#FFFFFF;" points="144.696,0 144.696,33.391 111.304,33.391 111.304,66.783 77.913,66.783 77.913,100.174 
	44.522,100.174 44.522,133.565 77.913,133.565 111.304,133.565 111.304,100.174 144.696,100.174 144.696,66.783 178.087,66.783 
	178.087,0 "/>
<rect x="77.913" y="278.261" width="33.391" height="66.783"/>
<polygon points="77.913,100.174 44.522,100.174 44.522,278.261 77.913,278.261 77.913,200.348 111.304,200.348 111.304,166.957 
	77.913,166.957 "/>
<rect x="367.304" y="278.261" width="33.391" height="66.783"/>
<rect x="111.304" y="345.043" width="33.391" height="33.391"/>
<rect x="333.913" y="345.043" width="33.391" height="33.391"/>
<polygon points="300.522,411.826 267.13,411.826 267.13,445.217 333.913,445.217 333.913,378.435 300.522,378.435 "/>
<rect x="111.304" y="445.217" width="33.391" height="33.391"/>
<rect x="333.913" y="445.217" width="33.391" height="33.391"/>
<polygon points="144.696,445.217 211.478,445.217 211.478,411.826 178.087,411.826 178.087,378.435 144.696,378.435 "/>
<rect x="77.913" y="478.609" width="33.391" height="33.391"/>
<rect x="367.304" y="478.609" width="33.391" height="33.391"/>
<rect x="144.696" width="189.217" height="33.391"/>
<rect x="111.304" y="33.391" width="33.391" height="33.391"/>
<rect x="333.913" y="33.391" width="33.391" height="33.391"/>
<polygon points="367.304,66.783 367.304,100.174 434.087,100.174 434.087,133.565 467.478,133.565 467.478,66.783 "/>
<rect x="178.087" y="133.565" width="66.783" height="33.391"/>
<rect x="111.304" y="133.565" width="33.391" height="33.391"/>
<rect x="77.913" y="66.783" width="33.391" height="33.391"/>
<polygon points="400.696,166.957 244.87,166.957 244.87,200.348 400.696,200.348 400.696,278.261 434.087,278.261 434.087,133.565 
	400.696,133.565 "/>
<rect x="144.696" y="100.174" width="33.391" height="33.391"/>
<g>
</g>
<g>
</g>
<g>
</g>
<g>
</g>
<g>
</g>
<g>
</g>
<g>
</g>
<g>
</g>
<g>
</g>
<g>
</g>
<g>
</g>
<g>
</g>
<g>
</g>
<g>
</g>
<g>
</g>
</svg>
