<?xml version="1.0" encoding="iso-8859-1"?>
<!-- Generator: Adobe Illustrator 19.0.0, SVG Export Plug-In . SVG Version: 6.00 Build 0)  -->
<svg version="1.1" id="Capa_1" xmlns="http://www.w3.org/2000/svg" xmlns:xlink="http://www.w3.org/1999/xlink" x="0px" y="0px"
	 viewBox="0 0 512 512" style="enable-background:new 0 0 512 512;" xml:space="preserve">
<g>
	<polygon style="fill:#F4E662;" points="325.815,465.46 325.815,418.91 325.815,372.36 325.815,325.82 372.355,325.82 
		418.905,325.82 418.905,279.27 372.355,279.27 325.815,279.27 279.265,279.27 279.265,325.82 279.265,372.36 279.265,418.91 
		279.265,465.46 279.265,512 325.815,512 372.355,512 418.905,512 418.905,465.46 372.355,465.46 	"/>
	<polygon style="fill:#F4E662;" points="418.905,325.82 418.905,372.36 418.905,418.91 418.905,465.46 465.455,465.46 
		465.455,418.91 465.455,372.36 465.455,325.82 	"/>
</g>
<g>
	<rect x="186.18" y="465.46" style="fill:#25C2CE;" width="46.55" height="46.54"/>
	<path style="fill:#25C2CE;" d="M186.175,279.27h-46.54h-46.55h-46.54v46.55v46.54v46.55v46.55V512h46.54v-46.54v-46.55h46.55v46.55
		h46.54v-46.55h46.55v-46.55v-46.54v-46.55L186.175,279.27L186.175,279.27z M186.175,372.36h-46.54h-46.55v-46.54h46.55h46.54
		L186.175,372.36L186.175,372.36z"/>
</g>
<polygon style="fill:#ED3B72;" points="372.355,46.55 418.905,46.55 465.455,46.55 465.455,0 418.905,0 372.355,0 325.815,0 
	279.265,0 279.265,46.55 279.265,93.09 279.265,139.64 279.265,186.18 279.265,232.73 325.815,232.73 372.355,232.73 
	418.905,232.73 465.455,232.73 465.455,186.18 418.905,186.18 372.355,186.18 325.815,186.18 325.815,139.64 325.815,139.64 
	372.355,139.64 418.905,139.64 418.905,93.09 372.355,93.09 325.815,93.09 325.815,46.55 "/>
<g>
	<polygon style="fill:#F4E662;" points="186.175,0 186.175,46.55 186.175,93.09 139.635,93.09 139.635,139.64 186.175,139.64 
		186.175,186.18 186.175,232.73 232.725,232.73 232.725,186.18 232.725,139.64 232.725,93.09 232.725,46.55 232.725,0 	"/>
	<polygon style="fill:#F4E662;" points="93.085,46.55 93.085,0 46.545,0 46.545,46.55 46.545,93.09 46.545,139.64 46.545,186.18 
		46.545,232.73 93.085,232.73 93.085,186.18 93.085,139.64 93.085,93.09 139.635,93.09 139.635,46.55 	"/>
</g>
<g>
</g>
<g>
</g>
<g>
</g>
<g>
</g>
<g>
</g>
<g>
</g>
<g>
</g>
<g>
</g>
<g>
</g>
<g>
</g>
<g>
</g>
<g>
</g>
<g>
</g>
<g>
</g>
<g>
</g>
</svg>
