<svg id="Capa_1" enable-background="new 0 0 512 512" height="512" viewBox="0 0 512 512" width="512" xmlns="http://www.w3.org/2000/svg"><g><path d="m504.5 256c0 99.85-58.9 185.95-143.85 225.45-.07-.51-.15-1.03-.25-1.54l-7.99-42.39-16.16-85.66-2.94-15.63-5.81-30.81 71.76 41.29c18.22-31.62 14.13-72.69-12.58-100.13-16.17-16.61-37.55-25.06-59.04-25.3l98.85-28.07c-10.53-37.17-44.7-64.4-85.23-64.4-40.55 0-74.73 27.23-85.26 64.4-10.53-37.17-44.71-64.4-85.26-64.4-40.53 0-74.7 27.23-85.23 64.4l99.82 28.34c-19.52 1.55-38.58 9.9-53.32 25.03-26.7 27.44-30.8 68.51-12.58 100.13l71.03-40.87-5.81 30.81-2.87 15.21-16.16 85.66-7.99 42.39c-.26 1.38-.44 2.76-.54 4.12-88.03-38.23-149.59-125.94-149.59-228.03 0-137.24 111.26-248.5 248.5-248.5s248.5 111.26 248.5 248.5z" fill="#ff63ed"/><path d="m256 0c-142.376 0-256 115.427-256 256 0 101.622 60.106 194.088 154.102 234.909.957.415 1.974.621 2.987.621 1.35 0 2.694-.364 3.881-1.082 2.08-1.257 3.421-3.444 3.6-5.867.08-1.083.225-2.188.43-3.282l32.83-174.069c.543-2.878-.64-5.809-3.027-7.504-2.388-1.696-5.545-1.847-8.083-.386l-64.209 36.945c-12.691-28.181-7.025-61.967 14.872-84.471 12.891-13.232 30.13-21.325 48.542-22.787 3.619-.288 6.512-3.125 6.87-6.738.358-3.612-1.923-6.962-5.415-7.954l-92.272-26.197c11.955-30.857 42.056-51.828 75.634-51.828 36.119 0 68.212 24.239 78.044 58.944.914 3.228 3.861 5.456 7.216 5.456 3.354 0 6.302-2.228 7.216-5.456 9.832-34.706 41.925-58.944 78.044-58.944 33.579 0 63.68 20.972 75.634 51.828l-91.303 25.927c-3.585 1.018-5.878 4.514-5.385 8.208s3.623 6.465 7.35 6.507c15.224.17 29.702 4.764 41.986 13.145.079.055.16.106.24.157 4.108 2.825 7.967 6.076 11.524 9.73 21.902 22.501 27.568 56.288 14.874 84.474l-64.939-37.366c-2.539-1.461-5.695-1.31-8.083.386s-3.57 4.626-3.027 7.504l16.842 89.325c.007.034.012.068.019.102l16.048 85.11c.073.374.13.754.182 1.128.325 2.357 1.75 4.42 3.839 5.56 2.09 1.14 4.597 1.219 6.753.216 89.832-41.772 148.184-131.884 148.184-232.251 0-140.618-113.737-256-256-256zm-104.722 473.119c-34.784-16.785-64.319-41.296-86.912-70.929h100.289zm-28.107-119.909 56.897-32.738-12.584 66.718h-113.678c-15.406-23.754-26.631-50.223-32.933-78.265h80.071c.593 14.313 4.527 28.582 11.988 41.53 2.067 3.587 6.65 4.819 10.239 2.755zm-21.629-59.285h-83.548c-1.972-12.414-2.994-25.086-2.994-37.925 0-4.263.118-8.509.336-12.735h109.511c-13.145 14.316-21.039 32.142-23.305 50.66zm274.551-65.66c-5.146-3.327-10.593-6.117-16.276-8.326l68.723-19.515c3.982-1.131 6.296-5.275 5.167-9.259-11.652-41.13-49.667-69.855-92.446-69.855-36.18 0-68.951 20.529-85.26 51.729-16.308-31.199-49.08-51.729-85.26-51.729-42.779 0-80.794 28.726-92.446 69.855-1.129 3.984 1.185 8.128 5.167 9.259l72.756 20.656c-4.698 2.001-9.21 4.419-13.516 7.184h-126.117c13.564-119.106 114.674-213.264 239.415-213.264 124.746 0 225.852 94.162 239.415 213.265zm-9.86 242.101-12.855-68.176h94.201c-21.749 28.484-49.478 51.766-81.346 68.176zm91.96-83.176h-107.642l-12.659-67.138 57.628 33.159c3.587 2.065 8.171.832 10.238-2.756 7.461-12.949 11.397-27.217 11.991-41.53h73.405c-6.215 27.725-17.31 54.197-32.961 78.265zm35.825-93.265h-76.866c-2.266-18.52-10.16-36.345-23.309-50.66h102.821c.218 4.226.336 8.472.336 12.735 0 12.781-1.009 25.456-2.982 37.925z" fill="#e207b9"/><path d="m360.65 481.45c-31.81 14.79-67.26 23.05-104.65 23.05-35.15 0-68.6-7.3-98.91-20.47.1-1.36.28-2.74.54-4.12l7.99-42.39h186.79l7.99 42.39c.1.51.18 1.03.25 1.54z" fill="#ffff6f"/><path d="m336.25 351.86h-154.47l2.87-15.21 5.81-30.81 68.89-39.64 68.15 39.22 5.8 30.81h.01z" fill="#ffff6f"/><path d="m333.31 347.23h-.01l-52.12-30c-13.52-7.78-30.15-7.78-43.66 0l-52.87 30.42 5.81-41.81 68.89-39.64 68.15 39.22z" fill="#f90"/><path d="m352.41 437.52h-186.79l16.16-85.66h154.47z" fill="#ffff6f"/><circle cx="303.132" cy="383.43" fill="#f90" r="9.36"/><g><path d="m278.837 416.158h-39.639c-4.142 0-7.5-3.358-7.5-7.5s3.358-7.5 7.5-7.5h39.639c4.143 0 7.5 3.358 7.5 7.5s-3.358 7.5-7.5 7.5z" fill="#f90"/></g><circle cx="214.902" cy="383.43" fill="#f90" r="9.36"/><path d="m327.64 221.28 98.85-28.07c-10.53-37.17-44.7-64.4-85.23-64.4-40.55 0-74.73 27.23-85.26 64.4-10.53-37.17-44.71-64.4-85.26-64.4-40.53 0-74.7 27.23-85.23 64.4l99.82 28.34c-19.52 1.55-38.58 9.9-53.32 25.03-26.7 27.44-30.8 68.51-12.58 100.13l71.03-40.87 68.89-39.64 68.15 39.22 71.76 41.29c18.22-31.62 14.13-72.69-12.58-100.13-16.17-16.61-37.55-25.06-59.04-25.3z" fill="#88f8d8"/><path d="m368.08 480.425c-.089-.646-.192-1.305-.31-1.904l-7.99-42.387c0-.001 0-.002 0-.003l-16.158-85.651c0-.002 0-.004-.001-.006l-2.94-15.63c-.024-.125-.051-.25-.08-.373l-5.73-30.438c-.404-2.153-1.73-4.021-3.629-5.113l-68.15-39.22c-2.315-1.333-5.166-1.334-7.482 0l-68.89 39.64c-1.898 1.092-3.224 2.959-3.629 5.111l-8.68 46.019v.001l-16.16 85.659v.003l-7.99 42.389c-.31 1.647-.528 3.314-.649 4.957-.234 3.179 1.567 6.159 4.491 7.43 32.208 13.995 66.491 21.091 101.897 21.091 37.645 0 73.918-7.99 107.813-23.75 2.986-1.388 4.717-4.562 4.267-7.825zm-170.889-169.805 62.159-35.767 61.418 35.346 5.162 27.419c.023.125.05.249.079.371l1.198 6.371h-136.379zm-9.193 48.74h142.035l13.331 70.66h-168.697zm68.002 137.64c-31.406 0-61.87-5.928-90.637-17.626l6.476-34.354h174.353l6.032 32.001c-30.38 13.26-62.723 19.979-96.224 19.979z" fill="#f90"/><g><path d="m399.253 354.211c-1.27 0-2.555-.322-3.733-1.001l-136.17-78.357-136.18 78.357c-3.586 2.065-8.172.832-10.239-2.756-20.248-35.139-14.613-80.004 13.703-109.105 8.496-8.721 18.568-15.576 29.583-20.269l-72.756-20.656c-3.983-1.131-6.296-5.275-5.167-9.259 11.652-41.13 49.667-69.855 92.446-69.855 36.18 0 68.952 20.529 85.26 51.729 16.309-31.199 49.08-51.729 85.26-51.729 42.779 0 80.794 28.726 92.446 69.855 1.129 3.984-1.185 8.128-5.167 9.259l-68.723 19.515c12.01 4.667 22.979 11.899 32.237 21.409 28.321 29.095 33.956 73.961 13.704 109.106-1.387 2.409-3.91 3.757-6.504 3.757zm-139.903-95.511c1.292 0 2.583.333 3.741 1l133.089 76.586c12.694-28.186 7.028-61.972-14.874-84.474-14.236-14.624-33.325-22.804-53.75-23.032-3.727-.042-6.856-2.813-7.35-6.507s1.8-7.189 5.385-8.208l91.303-25.927c-11.954-30.856-42.055-51.828-75.634-51.828-36.119 0-68.212 24.239-78.044 58.944-.914 3.228-3.861 5.456-7.216 5.456s-6.302-2.228-7.216-5.456c-9.832-34.706-41.924-58.944-78.044-58.944-33.579 0-63.68 20.971-75.634 51.828l92.272 26.197c3.492.991 5.773 4.341 5.415 7.954-.357 3.613-3.251 6.45-6.87 6.738-18.412 1.462-35.651 9.555-48.542 22.787-21.897 22.504-27.563 56.29-14.872 84.471l133.099-76.585c1.159-.667 2.451-1 3.742-1z" fill="#007ea8"/></g></g></svg>