<?xml version="1.0" encoding="iso-8859-1"?>
<!-- Generator: Adobe Illustrator 19.0.0, SVG Export Plug-In . SVG Version: 6.00 Build 0)  -->
<svg version="1.1" id="Layer_1" xmlns="http://www.w3.org/2000/svg" xmlns:xlink="http://www.w3.org/1999/xlink" x="0px" y="0px"
	 viewBox="0 0 512 512" style="enable-background:new 0 0 512 512;" xml:space="preserve">
<polygon style="fill:#BDDBFF;" points="0,72.348 0,139.13 33.391,139.13 33.391,172.522 66.783,172.522 66.783,205.913 
	100.174,205.913 100.174,239.304 133.565,239.304 133.565,439.652 211.478,439.652 211.478,406.261 244.87,406.261 244.87,372.87 
	278.261,372.87 278.261,339.478 311.652,339.478 311.652,306.087 345.043,306.087 345.043,272.696 378.435,272.696 378.435,239.304 
	411.826,239.304 411.826,205.913 445.217,205.913 445.217,172.522 478.609,172.522 478.609,139.13 512,139.13 512,72.348 "/>
<polygon style="fill:#9BC9FF;" points="512,72.348 445.217,72.348 445.217,139.13 378.435,139.13 378.435,172.522 278.261,172.522 
	278.261,205.913 211.478,205.913 211.478,239.304 133.565,239.304 133.565,439.652 211.478,439.652 211.478,406.261 244.87,406.261 
	244.87,372.87 278.261,372.87 278.261,339.478 311.652,339.478 311.652,306.087 345.043,306.087 345.043,272.696 378.435,272.696 
	378.435,239.304 411.826,239.304 411.826,205.913 445.217,205.913 445.217,172.522 478.609,172.522 478.609,139.13 512,139.13 "/>
<polygon points="0,72.348 0,139.13 33.391,139.13 33.391,105.739 478.609,105.739 478.609,139.13 512,139.13 512,72.348 "/>
<rect x="445.217" y="139.13" width="33.391" height="33.391"/>
<rect x="411.826" y="172.522" width="33.391" height="33.391"/>
<rect x="378.435" y="205.913" width="33.391" height="33.391"/>
<rect x="345.043" y="239.304" width="33.391" height="33.391"/>
<rect x="311.652" y="272.696" width="33.391" height="33.391"/>
<rect x="278.261" y="306.087" width="33.391" height="33.391"/>
<rect x="244.87" y="339.478" width="33.391" height="33.391"/>
<rect x="211.478" y="372.87" width="33.391" height="33.391"/>
<rect x="33.391" y="139.13" width="33.391" height="33.391"/>
<rect x="66.783" y="172.522" width="33.391" height="33.391"/>
<rect x="100.174" y="205.913" width="33.391" height="33.391"/>
<polygon points="166.957,272.696 211.478,272.696 211.478,239.304 133.565,239.304 133.565,439.652 211.478,439.652 
	211.478,406.261 166.957,406.261 "/>
<rect x="211.478" y="205.913" width="66.783" height="33.391"/>
<rect x="278.261" y="172.522" width="66.783" height="33.391"/>
<g>
</g>
<g>
</g>
<g>
</g>
<g>
</g>
<g>
</g>
<g>
</g>
<g>
</g>
<g>
</g>
<g>
</g>
<g>
</g>
<g>
</g>
<g>
</g>
<g>
</g>
<g>
</g>
<g>
</g>
</svg>
