<?xml version="1.0" encoding="iso-8859-1"?>
<!-- Generator: Adobe Illustrator 19.0.0, SVG Export Plug-In . SVG Version: 6.00 Build 0)  -->
<svg version="1.1" id="Layer_1" xmlns="http://www.w3.org/2000/svg" xmlns:xlink="http://www.w3.org/1999/xlink" x="0px" y="0px"
	 viewBox="0 0 512 512" style="enable-background:new 0 0 512 512;" xml:space="preserve">
<polygon style="fill:#FFDE46;" points="512,166.959 511.997,166.959 511.997,166.958 478.606,166.958 378.432,166.958 
	378.432,133.567 345.041,133.567 345.041,89.045 311.65,89.045 311.65,33.393 278.259,33.393 278.259,0.002 233.738,0.002 
	233.738,33.393 200.347,33.393 200.347,89.045 166.955,89.045 166.955,133.567 133.564,133.567 133.564,166.959 33.391,166.959 
	33.391,166.958 0,166.958 0,256.001 0.003,256.001 0.003,256.001 33.391,256.001 33.391,289.392 66.782,289.392 66.782,478.608 
	66.782,489.738 66.782,511.999 155.825,511.999 155.825,489.738 155.825,478.608 155.825,478.608 155.825,478.609 211.477,478.609 
	211.477,445.218 211.477,445.218 211.477,445.217 300.52,445.217 300.52,445.218 300.52,445.218 300.52,478.609 356.172,478.609 
	356.172,478.608 356.172,478.608 356.172,511.999 445.215,511.999 445.215,489.738 445.215,478.608 445.215,289.392 
	478.606,289.392 478.606,256.002 512,256.002 "/>
<polygon style="fill:#FFFFFF;" points="378.432,166.958 378.432,133.567 345.041,133.567 345.041,89.045 311.65,89.045 
	311.65,33.393 278.259,33.393 278.259,0.002 233.738,0.002 233.738,33.393 200.347,33.393 200.347,89.045 166.955,89.045 
	166.955,133.567 133.564,133.567 133.564,166.958 0,166.958 0,233.74 33.391,233.74 133.564,233.74 133.564,200.349 
	166.955,200.349 166.955,166.958 200.347,166.958 200.347,133.567 200.347,122.436 233.738,122.436 233.738,89.045 233.738,66.784 
	278.259,66.784 278.259,89.045 278.259,122.436 311.65,122.436 311.65,133.567 311.65,166.958 345.041,166.958 345.041,200.349 
	378.432,200.349 378.432,233.74 478.606,233.74 511.997,233.74 511.997,166.958 "/>
<polygon points="133.564,166.958 0,166.958 0,166.958 0,200.349 0,256.001 33.391,256.001 33.391,200.349 133.564,200.349 
	133.564,166.958 166.955,166.958 166.955,133.567 133.564,133.567 "/>
<rect x="33.391" y="255.999" width="33.391" height="33.391"/>
<rect x="200.347" y="33.392" width="33.391" height="55.652"/>
<rect x="166.955" y="89.044" width="33.391" height="44.521"/>
<rect x="278.259" y="33.392" width="33.391" height="55.652"/>
<rect x="311.65" y="89.044" width="33.391" height="44.521"/>
<rect x="155.825" y="445.216" width="55.652" height="33.391"/>
<polygon points="66.782,489.738 66.782,511.999 155.825,511.999 155.825,478.608 100.173,478.608 100.173,289.392 66.782,289.392 
	66.782,478.608 "/>
<rect x="445.215" y="255.999" width="33.391" height="33.391"/>
<polygon points="411.823,478.608 356.172,478.608 356.172,511.999 445.215,511.999 445.215,489.738 445.215,478.608 
	445.215,289.392 411.823,289.392 "/>
<polygon points="378.432,166.958 378.432,133.567 345.041,133.567 345.041,166.958 378.432,166.958 378.432,200.349 
	478.606,200.349 478.606,256.001 511.997,256.001 511.997,200.349 511.997,166.958 511.997,166.958 "/>
<rect x="300.52" y="445.216" width="55.652" height="33.391"/>
<rect x="233.738" y="0.001" width="44.521" height="33.391"/>
<rect x="211.477" y="411.824" width="89.043" height="33.391"/>
<g>
</g>
<g>
</g>
<g>
</g>
<g>
</g>
<g>
</g>
<g>
</g>
<g>
</g>
<g>
</g>
<g>
</g>
<g>
</g>
<g>
</g>
<g>
</g>
<g>
</g>
<g>
</g>
<g>
</g>
</svg>
