<svg height="512pt" viewBox="0 0 512 512" width="512pt" xmlns="http://www.w3.org/2000/svg" xmlns:xlink="http://www.w3.org/1999/xlink"><linearGradient id="a" gradientUnits="userSpaceOnUse" x1="74.9807" x2="437.0193" y1="74.9807" y2="437.0193"><stop offset="0" stop-color="#ff2796"/><stop offset="1" stop-color="#b440a1"/></linearGradient><linearGradient id="b" gradientUnits="userSpaceOnUse" x1="203.4638" x2="308.5361" y1="308.2465" y2="413.3189"><stop offset="0" stop-color="#134a79"/><stop offset="1" stop-color="#092339"/></linearGradient><linearGradient id="c" gradientUnits="userSpaceOnUse" x1="202.7298" x2="309.27" y1="167.3489" y2="273.8891"><stop offset="0" stop-color="#fac15c"/><stop offset="1" stop-color="#fb8454"/></linearGradient><linearGradient id="d" gradientUnits="userSpaceOnUse" x1="159.1232" x2="352.8769" y1="194.9781" y2="388.7318"><stop offset="0" stop-color="#1d71b8"/><stop offset="1" stop-color="#103d63"/></linearGradient><linearGradient id="e" gradientUnits="userSpaceOnUse" x1="159.1232" x2="352.8767" y1="194.1376" y2="387.8911"><stop offset="0" stop-color="#77aad4"/><stop offset="1" stop-color="#4a8ec6"/></linearGradient><path d="m512 256c0 141.386719-114.613281 256-256 256s-256-114.613281-256-256 114.613281-256 256-256 256 114.613281 256 256zm0 0" fill="url(#a)"/><path d="m272.046875 330.214844.765625-3.054688-9.136719 1.460938-7.675781-1.460938v2.6875l-88.261719 14.125 16.8125 50.433594h142.898438l16.8125-50.433594zm0 0" fill="url(#b)"/><path d="m243.390625 87.59375h25.21875v79.855469h-25.21875zm0 0" fill="#4a8ec6"/><path d="m272.316406 252.601562 71.945313-13.703124c0-48.746094-39.515625-88.261719-88.261719-88.261719s-88.261719 39.515625-88.261719 88.261719l88.261719 14.121093v2.691407l7.675781-1.464844 9.136719 1.464844zm0 0" fill="url(#c)"/><path d="m272.464844 276.054688.347656-1.433594-8.757812.703125-8.054688-.703125v1.347656l-193.332031 15.464844v.84375c24.425781 20.75 70.15625 40.449218 105.070312 51.695312h176.523438c34.914062-11.246094 80.644531-30.945312 105.074219-51.695312v-.84375zm0 0" fill="url(#d)"/><path d="m344.261719 238.898438h-176.523438c-34.914062 11.246093-80.644531 30.941406-105.070312 51.695312v.839844h386.664062v-.839844c-24.425781-20.75-70.15625-40.449219-105.070312-51.695312zm0 0" fill="url(#e)"/></svg>