<svg height="512pt" viewBox="0 0 512 512" width="512pt" xmlns="http://www.w3.org/2000/svg"><path d="m512 256c0 141.386719-114.613281 256-256 256s-256-114.613281-256-256 114.613281-256 256-256 256 114.613281 256 256zm0 0" fill="#ff2796"/><path d="m243.390625 249.332031-180.722656 42.941407 218.492187 218.496093c107.21875-10.460937 195.035156-87.058593 222.152344-188.46875l-234.703125-234.707031zm0 0" fill="#b440a1"/><path d="m167.738281 343.972656 16.8125 50.433594h71.449219l16.8125-67.246094zm0 0" fill="#134a79"/><path d="m344.261719 343.972656-88.261719-16.8125v67.246094h71.449219zm0 0" fill="#092339"/><path d="m243.390625 87.59375h25.21875v79.855469h-25.21875zm0 0" fill="#4a8ec6"/><path d="m167.738281 238.898438 105.074219 16.8125-16.8125-105.074219c-48.746094 0-88.261719 39.515625-88.261719 88.261719zm0 0" fill="#f9b233"/><path d="m256 150.636719v105.074219l88.261719-16.8125c0-48.746094-39.515625-88.261719-88.261719-88.261719zm0 0" fill="#fb8454"/><path d="m62.667969 291.433594v.84375c24.425781 20.75 70.15625 40.449218 105.070312 51.695312h88.261719l16.8125-69.347656zm0 0" fill="#1d71b8"/><path d="m256 274.621094v69.351562h88.261719c34.914062-11.246094 80.644531-30.945312 105.070312-51.699218v-.839844zm0 0" fill="#134a79"/><path d="m167.738281 238.898438c-34.914062 11.246093-80.644531 30.945312-105.070312 51.695312v.84375h193.332031l16.8125-26.269531-16.8125-26.269531zm0 0" fill="#77aad4"/><path d="m449.332031 290.59375c-24.425781-20.75-70.15625-40.449219-105.070312-51.695312h-88.261719v52.535156h193.332031zm0 0" fill="#4a8ec6"/></svg>