<?xml version="1.0" encoding="iso-8859-1"?>
<!-- Generator: Adobe Illustrator 19.0.0, SVG Export Plug-In . SVG Version: 6.00 Build 0)  -->
<svg version="1.1" id="Layer_1" xmlns="http://www.w3.org/2000/svg" xmlns:xlink="http://www.w3.org/1999/xlink" x="0px" y="0px"
	 viewBox="0 0 512 512" style="enable-background:new 0 0 512 512;" xml:space="preserve">
<polygon style="fill:#FF52A0;" points="478.585,105.748 478.585,72.359 445.195,72.359 445.195,38.969 311.637,38.969 
	311.637,72.359 278.247,72.359 278.247,105.748 233.728,105.748 233.728,72.359 200.339,72.359 200.339,38.969 66.78,38.969 
	66.78,72.359 33.391,72.359 33.391,105.748 0.001,105.748 0.001,306.085 33.391,306.085 33.391,339.475 66.78,339.475 
	66.78,372.865 100.17,372.865 100.17,406.254 166.949,406.254 166.949,439.644 233.728,439.644 233.728,473.033 278.247,473.033 
	278.247,439.644 345.027,439.644 345.027,406.254 411.806,406.254 411.806,372.865 445.195,372.865 445.195,339.475 
	478.585,339.475 478.585,306.099 512,306.099 512,105.761 "/>
<g>
	<polygon style="fill:#FFFFFF;" points="311.637,38.969 311.637,72.359 278.247,72.359 278.247,105.748 233.728,105.748 
		233.728,139.138 278.247,139.138 311.637,139.138 311.637,105.748 345.027,105.748 345.027,38.969 	"/>
	<polygon style="fill:#FFFFFF;" points="66.78,72.359 33.391,72.359 33.391,105.748 0.001,105.748 0.001,139.138 33.391,139.138 
		66.78,139.138 66.78,105.748 100.17,105.748 100.17,38.969 66.78,38.969 	"/>
</g>
<rect x="33.39" y="72.356" width="33.39" height="33.39"/>
<rect x="445.194" y="72.356" width="33.39" height="33.39"/>
<rect x="278.246" y="72.356" width="33.39" height="33.39"/>
<rect x="33.39" y="306.083" width="33.39" height="33.39"/>
<rect x="445.194" y="306.083" width="33.39" height="33.39"/>
<rect x="166.948" y="406.252" width="66.779" height="33.39"/>
<rect x="278.246" y="406.252" width="66.779" height="33.39"/>
<rect x="200.337" y="72.356" width="33.39" height="33.39"/>
<rect x="233.727" y="105.746" width="44.519" height="33.39"/>
<rect x="345.026" y="372.862" width="66.779" height="33.39"/>
<rect x="100.169" y="372.862" width="66.779" height="33.39"/>
<rect x="66.779" y="339.473" width="33.39" height="33.39"/>
<rect x="411.805" y="339.473" width="33.39" height="33.39"/>
<rect x="233.727" y="439.642" width="44.519" height="33.39"/>
<rect x="66.779" y="38.967" width="133.558" height="33.39"/>
<rect x="311.636" y="38.967" width="133.558" height="33.39"/>
<rect y="105.746" width="33.39" height="200.337"/>
<rect x="478.584" y="105.746" width="33.39" height="200.337"/>
<g>
</g>
<g>
</g>
<g>
</g>
<g>
</g>
<g>
</g>
<g>
</g>
<g>
</g>
<g>
</g>
<g>
</g>
<g>
</g>
<g>
</g>
<g>
</g>
<g>
</g>
<g>
</g>
<g>
</g>
</svg>
