<?xml version="1.0" encoding="iso-8859-1"?>
<!-- Generator: Adobe Illustrator 19.0.0, SVG Export Plug-In . SVG Version: 6.00 Build 0)  -->
<svg version="1.1" id="Layer_1" xmlns="http://www.w3.org/2000/svg" xmlns:xlink="http://www.w3.org/1999/xlink" x="0px" y="0px"
	 viewBox="0 0 512 512" style="enable-background:new 0 0 512 512;" xml:space="preserve">
<polygon style="fill:#006DF0;" points="478.609,166.957 478.609,166.957 478.609,133.565 478.609,133.565 445.217,133.565 
	445.217,133.565 445.217,100.174 411.826,100.174 411.826,66.783 411.826,66.783 345.043,66.783 345.043,33.391 345.043,33.391 
	267.13,33.391 267.13,0 233.739,0 233.739,33.391 166.957,33.391 166.957,33.391 166.957,66.783 100.174,66.783 100.174,66.783 
	100.174,100.174 66.783,100.174 66.783,133.565 66.783,133.565 66.783,133.565 33.391,133.565 33.391,133.565 33.391,166.957 
	33.391,166.957 0,166.957 0,256 0,256 0,289.391 33.391,289.391 33.391,256 33.391,256 33.391,256 111.304,256 111.304,289.391 
	144.696,289.391 144.696,256 367.304,256 367.304,289.391 400.696,289.391 400.696,256 478.609,256 478.609,289.391 512,289.391 
	512,256 512,256 512,166.957 "/>
<polygon style="fill:#FFFFFF;" points="378.435,189.217 378.435,144.696 345.043,144.696 345.043,100.174 311.652,100.174 
	311.652,33.391 200.348,33.391 200.348,100.174 166.957,100.174 166.957,144.696 133.565,144.696 133.565,189.217 111.304,189.217 
	111.304,244.87 111.304,256 111.304,289.391 144.696,289.391 144.696,256 166.957,256 200.348,256 311.652,256 345.043,256 
	367.304,256 367.304,289.391 400.696,289.391 400.696,256 400.696,233.739 400.696,189.217 "/>
<rect x="333.913" y="445.217" width="33.391" height="33.391"/>
<rect x="267.13" y="478.609" width="66.783" height="33.391"/>
<rect x="233.739" y="256" width="33.391" height="222.609"/>
<rect x="66.783" y="100.174" width="33.391" height="33.391"/>
<rect x="100.174" y="66.783" width="66.783" height="33.391"/>
<rect x="345.043" y="66.783" width="66.783" height="33.391"/>
<rect x="33.391" y="133.565" width="33.391" height="33.391"/>
<polygon points="345.043,33.391 267.13,33.391 267.13,0 233.739,0 233.739,33.391 166.957,33.391 166.957,66.783 345.043,66.783 "/>
<polygon points="33.391,222.609 33.391,166.957 0,166.957 0,256 0,256 0,289.391 33.391,289.391 33.391,256 33.391,256 33.391,256 
	111.304,256 111.304,222.609 "/>
<rect x="144.696" y="222.609" width="89.043" height="33.391"/>
<rect x="267.13" y="222.609" width="100.174" height="33.391"/>
<rect x="411.826" y="100.174" width="33.391" height="33.391"/>
<rect x="445.217" y="133.565" width="33.391" height="33.391"/>
<polygon points="512,166.957 478.609,166.957 478.609,222.609 400.696,222.609 400.696,256 478.609,256 478.609,289.391 
	512,289.391 512,256 512,256 "/>
<rect x="111.304" y="256" width="33.391" height="33.391"/>
<rect x="367.304" y="256" width="33.391" height="33.391"/>
<g>
</g>
<g>
</g>
<g>
</g>
<g>
</g>
<g>
</g>
<g>
</g>
<g>
</g>
<g>
</g>
<g>
</g>
<g>
</g>
<g>
</g>
<g>
</g>
<g>
</g>
<g>
</g>
<g>
</g>
</svg>
