<?xml version="1.0" encoding="iso-8859-1"?>
<!-- Generator: Adobe Illustrator 19.0.0, SVG Export Plug-In . SVG Version: 6.00 Build 0)  -->
<svg version="1.1" id="Capa_1" xmlns="http://www.w3.org/2000/svg" xmlns:xlink="http://www.w3.org/1999/xlink" x="0px" y="0px"
	 viewBox="0 0 512 512" style="enable-background:new 0 0 512 512;" xml:space="preserve">
<path style="fill:#E0230D;" d="M255.943,429.586V512c22.757,0,41.207-18.451,41.207-41.207
	C297.151,448.036,278.7,429.586,255.943,429.586z"/>
<path style="fill:#FF5440;" d="M255.943,429.586c5.687,0,10.302,18.451,10.302,41.207c0,22.757-4.615,41.207-10.302,41.207
	c-22.757,0-41.207-18.451-41.207-41.207C214.736,448.036,233.187,429.586,255.943,429.586z"/>
<path style="fill:#E0230D;" d="M379.565,123.539C379.514,55.413,324.079,0,255.943,0l82.445,102.936l0.082,141.434l-51.542,92.72
	c51.128-0.031,92.749-41.613,92.749-92.72L379.565,123.539z"/>
<path style="fill:#FF5440;" d="M348.773,244.369l-0.082-120.83C348.649,55.413,307.061,0,255.943,0
	c-68.167,0-123.622,55.455-123.622,123.622v61.811c0.062,16.967,13.938,30.689,30.957,30.689
	c17.07-0.062,30.916-13.897,30.854-30.905v-61.595c0-34.078,27.732-61.811,61.811-61.811c34.058,0,61.79,27.712,61.811,61.77
	l0.093,120.789c0,17.039-13.856,30.792-30.885,30.802c-34.089,0-61.811,27.619-61.811,61.698v30.905
	c-0.062,17.008,13.722,30.844,30.792,30.905h0.113c17.019,0,30.844-13.712,30.905-30.689l-0.033-30.901
	C321.687,331.958,348.773,292.025,348.773,244.369z"/>
<g>
</g>
<g>
</g>
<g>
</g>
<g>
</g>
<g>
</g>
<g>
</g>
<g>
</g>
<g>
</g>
<g>
</g>
<g>
</g>
<g>
</g>
<g>
</g>
<g>
</g>
<g>
</g>
<g>
</g>
</svg>
