<?xml version="1.0" encoding="iso-8859-1"?>
<!-- Generator: Adobe Illustrator 19.0.0, SVG Export Plug-In . SVG Version: 6.00 Build 0)  -->
<svg version="1.1" id="Layer_1" xmlns="http://www.w3.org/2000/svg" xmlns:xlink="http://www.w3.org/1999/xlink" x="0px" y="0px"
	 viewBox="0 0 512 512" style="enable-background:new 0 0 512 512;" xml:space="preserve">
<polygon style="fill:#FFDA44;" points="512,0 300.522,0 300.522,33.391 233.739,33.391 233.739,66.783 166.957,66.783 
	166.957,100.174 133.565,100.174 133.565,133.565 100.174,133.565 100.174,166.958 66.783,166.958 66.783,233.74 33.391,233.74 
	33.391,300.524 0,300.524 0,512 111.304,512 144.696,512 144.696,311.652 178.089,311.652 178.087,244.87 211.849,244.87 
	211.849,211.478 244.871,211.479 244.87,178.087 311.652,178.087 311.652,144.696 512,144.696 "/>
<polygon style="fill:#57A4FF;" points="512,222.609 322.783,222.609 322.784,256 289.394,256 289.391,289.391 256.001,289.391 
	256,322.783 222.609,322.783 222.609,512 322.783,512 356.174,512 356.174,389.565 389.565,389.565 389.565,356.174 512,356.174 
	512,322.783 "/>
<polygon style="fill:#F072AE;" points="512,110.562 311.652,110.562 311.653,144.696 244.871,144.696 244.87,178.087 
	211.479,178.087 211.478,211.478 178.088,211.478 178.087,244.87 144.698,244.87 144.696,311.652 111.304,311.652 111.304,512 
	222.609,512 256,512 256,322.783 289.392,322.783 289.391,289.391 322.784,289.391 322.783,256 512,256 "/>
<rect x="289.391" y="256" width="33.391" height="33.391"/>
<rect x="256" y="289.391" width="33.391" height="33.391"/>
<rect x="211.478" y="178.087" width="33.391" height="33.391"/>
<rect x="178.087" y="211.478" width="33.391" height="33.391"/>
<rect x="144.696" y="244.87" width="33.391" height="66.783"/>
<rect x="356.174" y="356.174" width="33.391" height="33.391"/>
<polygon points="322.783,478.609 256.001,478.609 256.001,322.783 222.61,322.783 222.61,478.609 144.696,478.609 144.696,311.652 
	111.304,311.652 111.304,478.609 33.391,478.609 33.391,300.522 0,300.522 0,478.609 0,512 0,512 356.174,512 356.174,512 
	356.174,478.609 356.174,389.565 322.783,389.565 "/>
<rect x="133.565" y="100.174" width="33.391" height="33.391"/>
<rect x="100.174" y="133.565" width="33.391" height="33.391"/>
<rect x="233.739" y="33.391" width="66.783" height="33.391"/>
<rect x="166.957" y="66.783" width="66.783" height="33.391"/>
<rect x="66.783" y="166.957" width="33.391" height="66.783"/>
<rect x="33.391" y="233.739" width="33.391" height="66.783"/>
<polygon points="478.609,0 300.523,0 300.523,33.391 478.609,33.391 478.609,111.304 311.653,111.304 311.653,144.696 
	244.871,144.696 244.871,178.087 311.653,178.087 311.653,144.696 478.609,144.696 478.609,222.609 322.784,222.609 322.784,256 
	478.609,256 478.609,322.783 389.565,322.783 389.565,356.174 478.609,356.174 478.609,356.174 512,356.174 512,356.174 
	512,322.783 512,256 512,222.609 512,144.696 512,111.304 512,33.391 512,0 "/>
<g>
</g>
<g>
</g>
<g>
</g>
<g>
</g>
<g>
</g>
<g>
</g>
<g>
</g>
<g>
</g>
<g>
</g>
<g>
</g>
<g>
</g>
<g>
</g>
<g>
</g>
<g>
</g>
<g>
</g>
</svg>
